<svg width="32" height="32" viewBox="-4 -4 48 48" fill="none" xmlns="http://www.w3.org/2000/svg">
  <rect x="-4" y="-4" width="48" height="48" fill="#0a0a0f"/>
  <path d="M34.9327 22.4168C36.3863 22.4168 37.4213 23.574 37.2442 25.0018L36.6879 29.485C36.1981 33.4323 32.4768 36.6322 28.4579 36.6322H1.41186C0.596824 36.6322 -0.0343377 35.9262 0.0649971 35.1257L0.618619 30.6641C0.702164 29.9909 1.28 29.485 1.96549 29.485H27.954C28.6807 29.4849 29.3417 28.9061 29.4302 28.1923L30.1468 22.4168H34.9327Z" fill="#1DC9D8"/>
  <path d="M30.1468 22.4168H9.0836C8.26859 22.4168 7.73118 21.4954 7.83048 20.6949L8.40741 16.0439C8.49093 15.3706 9.02538 14.6748 9.71089 14.6748H31.1076L30.1468 22.4168Z" fill="#1DC9D8"/>
  <path d="M32.9194 0.674774C36.9383 0.674774 39.8657 3.87469 39.376 7.822L38.8463 12.0898C38.6691 13.5175 37.3471 14.6748 35.8935 14.6748H31.1076L31.7973 9.11467C31.8859 8.40085 31.3685 7.82205 30.6418 7.822H20.4975L23.5171 4.24839L21.3844 0.674774H32.9194Z" fill="#1DC9D8"/>
  <path d="M14.8417 6.15756C16.7846 6.07043 18.329 6.24437 18.3792 6.34049C18.4294 6.43668 18.3893 6.66377 18.2901 6.84733C18.127 7.14415 17.7892 7.15155 14.8417 6.91815C13.0438 6.77384 11.494 6.61967 11.3995 6.57129C11.304 6.525 12.9005 6.24462 14.8417 6.15756Z" fill="#1DC9D8"/>
  <path d="M13.7279 3.93874C16.4526 3.82827 18.4747 4.02673 18.479 4.12889C18.483 4.22901 18.3798 4.43571 18.2507 4.58918C18.0591 4.81616 17.1509 4.8321 13.3124 4.67868C10.7274 4.5748 8.6112 4.45611 8.60636 4.4164C8.60472 4.37679 11.0142 4.04877 13.7279 3.93874Z" fill="#1DC9D8"/>
  <path d="M12.1525 1.3675C19.6031 1.04033 19.6303 1.04124 19.2509 1.46388C18.783 1.9841 18.8606 2.20991 10.8443 2.04416L4.67289 1.69567L12.1525 1.3675Z" fill="#1DC9D8"/>
</svg>
