<svg viewBox="0 0 24 24" fill="currentColor"><path d="M21.038,4.9l-7.577-4.498C13.009,0.134,12.505,0,12,0c-0.505,0-1.009,0.134-1.462,0.403L2.961,4.9 C2.057,5.437,1.5,6.429,1.5,7.503v8.995c0,1.073,0.557,2.066,1.461,2.603l7.577,4.497C10.991,23.866,11.495,24,12,24 c0.505,0,1.009-0.134,1.461-0.402l7.577-4.497c0.904-0.537,1.462-1.529,1.462-2.603V7.503C22.5,6.429,21.943,5.437,21.038,4.9z M15.17,18.946l0.013,0.646c0.001,0.078-0.05,0.167-0.111,0.198l-0.383,0.22c-0.061,0.031-0.111-0.007-0.112-0.085l-0.007-0.635 c-0.29,0.107-0.62,0.131-0.937,0.029c-0.106-0.034-0.148-0.12-0.107-0.221l0.096-0.257c0.023-0.067,0.07-0.127,0.122-0.146 c0.018-0.007,0.037-0.007,0.054,0.003c0.296,0.133,0.619,0.166,0.873,0.039c0.139-0.067,0.167-0.181,0.062-0.261 c-0.2-0.149-0.784-0.192-1.104-0.574c-0.165-0.197-0.243-0.449-0.187-0.716c0.067-0.322,0.33-0.591,0.707-0.751l-0.01-0.621 c-0.001-0.078,0.049-0.168,0.11-0.2l0.371-0.212c0.061-0.031,0.111,0.007,0.112,0.085l0.005,0.595 c0.215-0.051,0.453-0.057,0.69,0.007c0.093,0.025,0.135,0.115,0.104,0.21l-0.096,0.254c-0.021,0.066-0.07,0.128-0.12,0.149 c-0.017,0.007-0.035,0.008-0.051-0.001c-0.24-0.108-0.498-0.129-0.706-0.044c-0.171,0.072-0.2,0.193-0.073,0.29 C15.012,17.322,15.607,17.473,15.17,18.946z M16.963,17.32c0.061-0.031,0.111,0.007,0.111,0.085l0.001,1.715 c0,0.078-0.05,0.168-0.111,0.199l-4.193,2.41c-0.061,0.031-0.111-0.007-0.111-0.085V19.93c0-0.078,0.05-0.168,0.111-0.199 L16.963,17.32z M7.421,13.471c0-0.063,0.041-0.136,0.091-0.163l1.823-1.025c0.05-0.027,0.091,0.001,0.091,0.063v0.493 c0,0.063-0.041,0.136-0.091,0.163l-1.823,1.025c-0.05,0.027-0.091-0.001-0.091-0.063V13.471z M14.53,8.107 c0.15-0.086,0.272-0.019,0.272,0.151v5.486c0,0.169-0.121,0.375-0.272,0.461l-4.401,2.532c-0.15,0.086-0.272,0.019-0.272-0.151 v-5.486c0-0.169,0.122-0.375,0.272-0.461L14.53,8.107z"/></svg>
