<svg viewBox="0 0 24 24" fill="currentColor"><path d="M23.8346 11.7033l-1.0073-.6236a13.7268 13.7268 0 00-.0283-.2936l.8656-.8069a.3483.3483 0 00-.1154-.578l-1.1066-.414a8.4958 8.4958 0 00-.087-.2856l.6904-.9587a.3462.3462 0 00-.2256-.5446l-1.1663-.1894a9.3574 9.3574 0 00-.1407-.2622l.4895-1.0761a.3437.3437 0 00-.3273-.4861l-1.1845.0416c-.0563-.0765-.114-.1519-.1726-.2263l.2688-1.1536a.3415.3415 0 00-.4156-.4018l-1.1595.2716a9.3935 9.3935 0 00-.199-.1838l.0387-1.1877a.3415.3415 0 00-.4873-.2925l-1.0935.4944a9.689 9.689 0 00-.22-.1377l-.1925-1.1775a.3393.3393 0 00-.5765-.1621l-.9851.7025a9.0005 9.0005 0 00-.2345-.0867l-.4142-1.1213a.3415.3415 0 00-.6178-.0189l-.8371.8793c-.0849-.0166-.1699-.0321-.2557-.0458l-.6205-1.0235a.3393.3393 0 00-.6076.1131l-.654 1.0206a9.2066 9.2066 0 00-.2661.0361l-.8068-.8843a.3415.3415 0 00-.5765.1621l-.4358 1.1094a9.0521 9.0521 0 00-.2443.0737l-.9571-.7071a.3437.3437 0 00-.5446.2256l-.1923 1.1457c-.079.0352-.157.0713-.2345.1083l-1.0716-.4964a.3415.3415 0 00-.4873.2925l.0557 1.1703a9.3935 9.3935 0 00-.2191.1531l-1.1428-.2608a.3437.3437 0 00-.4155.4018l.2977 1.1326a9.3574 9.3574 0 00-.1958.1917l-1.1688-.0189a.3437.3437 0 00-.3273.4861l.5188 1.0586a9.3574 9.3574 0 00-.1656.2244l-1.1515.2135a.3462.3462 0 00-.2256.5446l.7181.9361a8.4958 8.4958 0 00-.1278.2515l-1.0898.4358a.3483.3483 0 00-.1154.578l.8882.7836a13.7268 13.7268 0 00-.0831.2708l-.9842.6463a.3505.3505 0 000 .5765l.9842.6463c.0246.0908.0524.1816.0831.2708l-.8882.7836a.3483.3483 0 00.1154.578l1.0898.4358c.0396.0849.0822.1689.1278.2515l-.7181.9361a.3462.3462 0 00.2256.5446l1.1515.2135c.0534.0765.1089.1519.1656.2244l-.5765 1.0586a.3437.3437 0 00.3273.4861l1.1688-.0189c.0626.0661.127.1313.1958.1917l-.2977 1.1326a.3437.3437 0 00.4155.4018l1.1428-.2608c.0713.0534.1437.1057.2191.1531l-.0557 1.1703a.3415.3415 0 00.4873.2925l1.0716-.4964c.0775.037.1555.0731.2345.1083l.1923 1.1457a.3437.3437 0 00.5765.1621l.9571-.7071c.0802.0274.1618.0535.2443.0737l.4358 1.1094a.3415.3415 0 00.5765.1621l.8068-.8843c.0879.0151.1767.0283.2661.0361l.654 1.0206a.3393.3393 0 00.6076.1131l.6205-1.0235c.0858-.0137.1708-.0292.2557-.0458l.8371.8793a.3415.3415 0 00.6178-.0189l.4142-1.1213a9.0005 9.0005 0 00.2345-.0867l.9851.7025a.3393.3393 0 00.5765-.1621l.1925-1.1775c.075-.0426.1487-.0897.22-.1377l1.0935.4944a.3415.3415 0 00.4873-.2925l-.0387-1.1877a9.3935 9.3935 0 00.199-.1838l1.1595.2716a.3437.3437 0 00.4156-.4018l-.2688-1.1536c.0586-.0744.1163-.1498.1726-.2263l1.1845.0416a.3437.3437 0 00.3273-.4861l-.4895-1.0761c.0491-.0867.0954-.1744.1407-.2622l1.1663-.1894a.3462.3462 0 00.2256-.5446l-.6904-.9587a8.4958 8.4958 0 00.087-.2856l1.1066-.414a.3483.3483 0 00.1154-.578l-.8656-.8069a13.7268 13.7268 0 00.0283-.2936l1.0073-.6236a.3505.3505 0 000-.5765zM12 18.3233a6.3233 6.3233 0 110-12.6467 6.3233 6.3233 0 010 12.6467z"/></svg>
